<svg width="42" height="46" viewBox="0 0 42 46" fill="none" xmlns="http://www.w3.org/2000/svg">
<path fill-rule="evenodd" clip-rule="evenodd" d="M16.5815 4.26347C15.7869 4.26347 15.1427 4.97928 15.1427 5.86228V23.4491C15.1427 24.3111 14.6755 25.0883 13.9589 25.4184C13.2423 25.7484 12.4173 25.5664 11.8685 24.9572L8.03101 20.6929C7.08093 19.6371 5.80656 19.6983 4.82585 20.5732C3.89734 21.4015 3.42387 22.8276 4.31835 24.4839C5.70879 27.0584 7.68112 30.2159 9.93126 33.0692C12.2041 35.9513 14.6474 38.3776 16.9594 39.6622C21.7494 42.3235 26.8355 42.518 31.4891 39.6974C34.0769 38.1289 35.9124 35.9698 37.0478 34.3183C37.8137 33.2041 38.1632 31.7011 38.1632 29.9669V12.2575C38.1632 11.3745 37.5191 10.6587 36.7245 10.6587C35.9298 10.6587 35.2857 11.3745 35.2857 12.2575V17.5868C35.2857 18.7641 34.4268 19.7186 33.3673 19.7186C32.3078 19.7186 31.4489 18.7641 31.4489 17.5868C31.4489 16.7038 30.8048 15.988 30.0101 15.988C29.2155 15.988 28.5714 16.7038 28.5714 17.5868C28.5714 18.7641 27.7125 19.7186 26.653 19.7186C25.5935 19.7186 24.7346 18.7641 24.7346 17.5868V15.988C24.7346 15.105 24.0904 14.3892 23.2958 14.3892C22.5012 14.3892 21.857 15.105 21.857 15.988C21.857 17.1653 20.9981 18.1198 19.9386 18.1198C18.8792 18.1198 18.0203 17.1653 18.0203 15.988V5.86228C18.0203 4.97928 17.3761 4.26347 16.5815 4.26347ZM21.857 10.3464V5.86228C21.857 2.62464 19.4951 0 16.5815 0C13.6679 0 11.3059 2.62464 11.3059 5.86228V18.3026L10.7441 17.6783C8.15747 14.8038 4.63567 15.2755 2.42397 17.2485C0.160049 19.2681 -0.955175 23.0047 1.02856 26.6778C2.51632 29.4325 4.62025 32.8035 7.04569 35.8791C9.4484 38.9259 12.28 41.829 15.2436 43.4755C21.0046 46.6764 27.4287 47.0149 33.3263 43.4403C36.528 41.4997 38.7495 38.8661 40.0967 36.9064C41.5402 34.8066 42 32.2772 42 29.9669V12.2575C42 9.01983 39.6381 6.39521 36.7245 6.39521C33.9044 6.39521 31.6012 8.85395 31.4562 11.9475C30.9966 11.8023 30.5116 11.7245 30.0101 11.7245C29.0982 11.7245 28.2402 11.9817 27.4919 12.4343C26.528 11.0311 25.007 10.1257 23.2958 10.1257C22.797 10.1257 22.3144 10.2027 21.857 10.3464Z" fill="white" fill-opacity="0.81"/>
</svg>
